<?xml version="1.0" encoding="UTF-8" standalone="no"?>
<svg
   shape-rendering="geometricPrecision"
   text-rendering="geometricPrecision"
   image-rendering="optimizeQuality"
   fill-rule="evenodd"
   clip-rule="evenodd"
   viewBox="0 0 512 376.83"
   version="1.1"
   id="svg4"
   sodipodi:docname="back-icon.svg"
   inkscape:version="1.2.2 (732a01da63, 2022-12-09)"
   xmlns:inkscape="http://www.inkscape.org/namespaces/inkscape"
   xmlns:sodipodi="http://sodipodi.sourceforge.net/DTD/sodipodi-0.dtd"
   xmlns="http://www.w3.org/2000/svg"
   xmlns:svg="http://www.w3.org/2000/svg">
  <defs
     id="defs8" />
  <sodipodi:namedview
     id="namedview6"
     pagecolor="#ffffff"
     bordercolor="#000000"
     borderopacity="0.25"
     inkscape:showpageshadow="2"
     inkscape:pageopacity="0.0"
     inkscape:pagecheckerboard="0"
     inkscape:deskcolor="#d1d1d1"
     showgrid="false"
     inkscape:zoom="2.1999311"
     inkscape:cx="223.18881"
     inkscape:cy="192.73331"
     inkscape:window-width="1920"
     inkscape:window-height="1009"
     inkscape:window-x="-8"
     inkscape:window-y="-8"
     inkscape:window-maximized="1"
     inkscape:current-layer="svg4" />
  <path
     fill-rule="nonzero"
     d="M156.88 372.7a12.026 12.026 0 0 0 17.09 1.06c5-4.47 5.46-12.2 1.04-17.25L38.96 200.69h460.89c6.71 0 12.15-5.5 12.15-12.28 0-6.77-5.44-12.27-12.15-12.27H38.95L175.01 20.32c4.42-5.05 3.96-12.78-1.04-17.25-5.01-4.47-12.66-4-17.09 1.05l-153.67 176c-4.17 4.55-4.32 11.64-.17 16.39L156.88 372.7z"
     id="path2"
     style="stroke:#ffffff;stroke-opacity:1" />
  <path
     style="fill:#ffffff;stroke-width:0.455;stroke:#ffffff;stroke-opacity:1;stroke-dasharray:none"
     d="m 161.14141,375.50871 c -1.00003,-0.46571 -2.77349,-1.84194 -3.94103,-3.05829 -1.16753,-1.21635 -36.42272,-41.48551 -78.344864,-89.48701 C 26.295097,222.78092 2.2966147,194.9824 1.5484355,193.41515 c -1.46498952,-3.0688 -1.48978221,-7.37242 -0.058312,-10.122 0.555475,-1.06696 11.2354185,-13.6469 23.7332085,-27.95542 12.497789,-14.30853 46.635692,-53.42545 75.862008,-86.926496 29.22631,-33.501049 54.28605,-62.1110171 55.68829,-63.5777058 3.1171,-3.2603471 5.50144,-4.42202576 9.1116,-4.43929258 6.43458,-0.0307755 11.31166,4.64460588 11.75938,11.27303038 0.1549,2.29343 -0.0163,3.244287 -0.94113,5.227437 -0.84138,1.80417 -18.64791,22.476383 -69.6298,80.835631 l -68.499318,78.411546 232.197968,0.22728 232.19797,0.22728 2.50008,1.40193 c 5.97051,3.34798 7.93834,10.46561 4.53896,16.41765 -1.32709,2.32368 -2.45167,3.3477 -5.44808,4.96096 -1.55091,0.835 -7.43723,0.86229 -233.78385,1.08385 l -232.192891,0.22728 68.494321,78.41154 c 50.97639,58.35722 68.78343,79.03153 69.62472,80.83563 2.64639,5.67506 -0.13189,12.92204 -5.97043,15.57357 -2.5006,1.13563 -7.15301,1.13556 -9.59172,-1.4e-4 z"
     id="path183" />
</svg>
